# File produced by Open Asset Import Library (http://www.assimp.sf.net)
# (assimp v3.1.128981410)

mtllib TexureModuleSol_autosave_0_autosave_0_autosave_1.mtl

# vertex positions
v -753.951172 250.000031 345.102417
v -753.951172 -249.999939 345.102509
v -103.951164 -249.999939 345.102509
v -103.951164 250.000031 345.102417
v -753.951172 250.000031 306.102417
v -103.951164 250.000031 306.102417
v -103.951164 -249.999939 306.102478
v -753.951172 -249.999939 306.102478

# UV coordinates
vt 0.080483 0.433228
vt 0.080484 0.000500
vt 0.643029 0.000500
vt 0.643029 0.433228
vt 0.643029 0.876714
vt 0.080484 0.876714
vt 0.080483 0.443987
vt 0.643029 0.443986
vt 0.043216 0.999500
vt 0.043216 0.436954
vt 0.076969 0.436954
vt 0.076969 0.999500
vt 0.043216 0.004227
vt 0.076969 0.004227
vt 0.032247 0.004227
vt 0.032249 0.566773
vt -0.001504 0.566773
vt -0.001506 0.004227
vt 0.032249 0.999500
vt -0.001504 0.999500

# vertex normals
vn 0.000000 0.000000 1.000000
vn 0.000000 -0.000000 -1.000000
vn 0.000000 1.000000 0.000000
vn 1.000000 0.000000 0.000000
vn 0.000000 -1.000000 -0.000000
vn -1.000000 0.000000 0.000000

# Mesh
g P_M_Sol_P_M_Sol
usemtl 08 - Default
f 4/4/1 1/1/1 2/2/1
f 2/2/1 3/3/1 4/4/1
f 8/8/2 5/5/2 6/6/2
f 6/6/2 7/7/2 8/8/2

# Mesh
g P_M_Sol_P_M_Sol
usemtl 02 - Default
f 5/12/3 1/9/3 4/10/3
f 4/10/3 6/11/3 5/12/3
f 6/11/4 4/10/4 3/13/4
f 3/13/4 7/14/4 6/11/4
f 7/18/5 3/15/5 2/16/5
f 2/16/5 8/17/5 7/18/5
f 8/17/6 2/16/6 1/19/6
f 1/19/6 5/20/6 8/17/6
